<mxfile host="app.diagrams.net" modified="2022-05-17T08:55:31.588Z" agent="5.0 (Macintosh; Intel Mac OS X 10_15_7) AppleWebKit/537.36 (KHTML, like Gecko) Chrome/101.0.4951.54 Safari/537.36" etag="kUCvfEFqw22ioq6oRUMv" version="18.0.6" type="github">
  <diagram id="07fea595-8f29-1299-0266-81d95cde20df" name="Page-1">
    <mxGraphModel dx="1298" dy="724" grid="1" gridSize="10" guides="1" tooltips="1" connect="1" arrows="1" fold="1" page="1" pageScale="1" pageWidth="1169" pageHeight="827" background="#ffffff" math="0" shadow="0">
      <root>
        <mxCell id="0" />
        <mxCell id="1" parent="0" />
        <mxCell id="170" value="&lt;font color=&quot;#23497d&quot;&gt;投放素材&lt;/font&gt;" style="swimlane;whiteSpace=wrap;swimlaneFillColor=#FCFCFC;fontFamily=Tahoma;html=1;opacity=50;" parent="1" vertex="1">
          <mxGeometry x="20" y="89" width="160" height="661" as="geometry">
            <mxRectangle x="20" y="20" width="80" height="23" as="alternateBounds" />
          </mxGeometry>
        </mxCell>
        <mxCell id="171" value="素材库" style="whiteSpace=wrap;shadow=0;fontColor=#FFFFFF;fontFamily=Helvetica;fontStyle=0;html=1;fontSize=12;plain-purple;strokeColor=none;fillColor=#2f5b7c;gradientColor=none;spacing=6;verticalAlign=middle;" parent="170" vertex="1">
          <mxGeometry x="20" y="80" width="120" height="60" as="geometry" />
        </mxCell>
        <mxCell id="172" value="素材包" style="whiteSpace=wrap;strokeColor=none;fillColor=#2f5b7c;shadow=0;fontColor=#FFFFFF;fontFamily=Helvetica;fontStyle=0;html=1;fontSize=12;spacing=6;verticalAlign=middle;" parent="170" vertex="1">
          <mxGeometry x="20" y="211.5" width="120" height="60" as="geometry" />
        </mxCell>
        <mxCell id="173" value="素材" style="whiteSpace=wrap;strokeColor=none;fillColor=#2f5b7c;shadow=0;fontColor=#FFFFFF;fontFamily=Helvetica;fontStyle=0;html=1;fontSize=12;spacing=6;verticalAlign=middle;" parent="170" vertex="1">
          <mxGeometry x="20" y="341" width="120" height="60" as="geometry" />
        </mxCell>
        <mxCell id="174" value="" style="edgeStyle=segmentEdgeStyle;strokeColor=#2F5B7C;strokeWidth=3;html=1;endArrow=block;endFill=1;exitX=0.5;exitY=0;exitDx=0;exitDy=0;entryX=0.5;entryY=1;entryDx=0;entryDy=0;" parent="170" source="173" target="172" edge="1">
          <mxGeometry width="100" height="100" relative="1" as="geometry">
            <mxPoint x="115.5" y="501.5" as="sourcePoint" />
            <mxPoint x="80.5" y="471.5" as="targetPoint" />
          </mxGeometry>
        </mxCell>
        <mxCell id="175" value="" style="edgeStyle=segmentEdgeStyle;strokeColor=#2F5B7C;strokeWidth=3;html=1;endArrow=block;endFill=1;entryX=0.5;entryY=1;entryDx=0;entryDy=0;exitX=0.5;exitY=0;exitDx=0;exitDy=0;" parent="170" source="172" target="171" edge="1">
          <mxGeometry width="100" height="100" relative="1" as="geometry">
            <mxPoint x="145.5" y="381.5" as="sourcePoint" />
            <mxPoint x="260" y="215" as="targetPoint" />
          </mxGeometry>
        </mxCell>
        <mxCell id="176" value="&lt;font color=&quot;#23497d&quot;&gt;媒体广告平台&lt;/font&gt;" style="swimlane;whiteSpace=wrap;fillColor=none;swimlaneFillColor=#F7F6F5;fontColor=#2F5B7C;fontFamily=Tahoma;html=1;strokeColor=default;opacity=25;" parent="1" vertex="1">
          <mxGeometry x="1150" y="90" width="490" height="660" as="geometry">
            <mxRectangle x="20" y="20" width="80" height="23" as="alternateBounds" />
          </mxGeometry>
        </mxCell>
        <mxCell id="bZvlyEn4WAad31Ou14rT-288" style="edgeStyle=orthogonalEdgeStyle;curved=1;rounded=0;orthogonalLoop=1;jettySize=auto;html=1;entryX=0;entryY=0.094;entryDx=0;entryDy=0;entryPerimeter=0;fontColor=#000000;endArrow=classic;endFill=1;strokeColor=#12AAB5;strokeWidth=3;" edge="1" parent="176" source="179" target="bZvlyEn4WAad31Ou14rT-282">
          <mxGeometry relative="1" as="geometry" />
        </mxCell>
        <mxCell id="179" value="AMS" style="whiteSpace=wrap;strokeColor=none;fillColor=#2f5b7c;shadow=0;fontColor=#FFFFFF;fontFamily=Helvetica;fontStyle=0;html=1;fontSize=12;spacing=6;verticalAlign=middle;" parent="176" vertex="1">
          <mxGeometry x="50" y="211" width="120" height="60" as="geometry" />
        </mxCell>
        <mxCell id="bZvlyEn4WAad31Ou14rT-275" value="快手" style="whiteSpace=wrap;strokeColor=none;fillColor=#2f5b7c;shadow=0;fontColor=#FFFFFF;fontFamily=Helvetica;fontStyle=0;html=1;fontSize=12;spacing=6;verticalAlign=middle;" vertex="1" parent="176">
          <mxGeometry x="50" y="301" width="120" height="60" as="geometry" />
        </mxCell>
        <mxCell id="bZvlyEn4WAad31Ou14rT-319" style="edgeStyle=orthogonalEdgeStyle;curved=1;rounded=0;orthogonalLoop=1;jettySize=auto;html=1;entryX=0;entryY=0.656;entryDx=0;entryDy=0;entryPerimeter=0;fontColor=#FF8000;endArrow=classic;endFill=1;strokeColor=#12AAB5;strokeWidth=3;" edge="1" parent="176" source="bZvlyEn4WAad31Ou14rT-276" target="bZvlyEn4WAad31Ou14rT-282">
          <mxGeometry relative="1" as="geometry" />
        </mxCell>
        <mxCell id="bZvlyEn4WAad31Ou14rT-276" value="百度" style="whiteSpace=wrap;strokeColor=none;fillColor=#2f5b7c;shadow=0;fontColor=#FFFFFF;fontFamily=Helvetica;fontStyle=0;html=1;fontSize=12;spacing=6;verticalAlign=middle;" vertex="1" parent="176">
          <mxGeometry x="50" y="396" width="120" height="60" as="geometry" />
        </mxCell>
        <mxCell id="bZvlyEn4WAad31Ou14rT-285" style="edgeStyle=orthogonalEdgeStyle;curved=1;rounded=0;orthogonalLoop=1;jettySize=auto;html=1;entryX=-0.008;entryY=0.914;entryDx=0;entryDy=0;entryPerimeter=0;fontColor=#000000;endArrow=classic;endFill=1;strokeColor=#12AAB5;strokeWidth=3;" edge="1" parent="176" source="bZvlyEn4WAad31Ou14rT-277" target="bZvlyEn4WAad31Ou14rT-282">
          <mxGeometry relative="1" as="geometry" />
        </mxCell>
        <mxCell id="bZvlyEn4WAad31Ou14rT-277" value="头条" style="whiteSpace=wrap;strokeColor=none;fillColor=#2f5b7c;shadow=0;fontColor=#FFFFFF;fontFamily=Helvetica;fontStyle=0;html=1;fontSize=12;spacing=6;verticalAlign=middle;" vertex="1" parent="176">
          <mxGeometry x="50" y="481" width="120" height="60" as="geometry" />
        </mxCell>
        <mxCell id="bZvlyEn4WAad31Ou14rT-290" value="" style="edgeStyle=orthogonalEdgeStyle;curved=1;rounded=0;orthogonalLoop=1;jettySize=auto;html=1;fontColor=#000000;endArrow=classic;endFill=1;strokeColor=#12AAB5;strokeWidth=3;" edge="1" parent="176" source="bZvlyEn4WAad31Ou14rT-282" target="bZvlyEn4WAad31Ou14rT-289">
          <mxGeometry relative="1" as="geometry" />
        </mxCell>
        <mxCell id="bZvlyEn4WAad31Ou14rT-282" value="&lt;font color=&quot;#000000&quot;&gt;落地页审核&lt;br&gt;+&lt;br&gt;广告创意审核&lt;br&gt;&lt;/font&gt;" style="rounded=0;whiteSpace=wrap;html=1;fontColor=#FFFFFF;strokeColor=default;strokeWidth=1;fillColor=#FFFFFF;dashed=1;" vertex="1" parent="176">
          <mxGeometry x="200" y="210" width="120" height="330" as="geometry" />
        </mxCell>
        <mxCell id="bZvlyEn4WAad31Ou14rT-294" style="edgeStyle=orthogonalEdgeStyle;curved=1;rounded=0;orthogonalLoop=1;jettySize=auto;html=1;entryX=0.5;entryY=0;entryDx=0;entryDy=0;fontColor=#000000;endArrow=classic;endFill=1;strokeColor=#12AAB5;strokeWidth=3;" edge="1" parent="176" source="bZvlyEn4WAad31Ou14rT-289" target="bZvlyEn4WAad31Ou14rT-293">
          <mxGeometry relative="1" as="geometry" />
        </mxCell>
        <mxCell id="bZvlyEn4WAad31Ou14rT-289" value="&lt;font color=&quot;#000000&quot;&gt;参与竞价&lt;/font&gt;" style="whiteSpace=wrap;html=1;fillColor=#FFFFFF;fontColor=#FFFFFF;rounded=0;strokeWidth=1;dashed=1;" vertex="1" parent="176">
          <mxGeometry x="350" y="345" width="120" height="60" as="geometry" />
        </mxCell>
        <mxCell id="bZvlyEn4WAad31Ou14rT-293" value="&lt;br&gt;&lt;br&gt;广告&lt;br&gt;展示" style="shape=actor;whiteSpace=wrap;html=1;dashed=1;fontColor=#000000;strokeColor=default;strokeWidth=1;fillColor=#FFFFFF;" vertex="1" parent="176">
          <mxGeometry x="375" y="440" width="70" height="89" as="geometry" />
        </mxCell>
        <mxCell id="bZvlyEn4WAad31Ou14rT-287" style="edgeStyle=orthogonalEdgeStyle;curved=1;rounded=0;orthogonalLoop=1;jettySize=auto;html=1;fontColor=#000000;endArrow=classic;endFill=1;strokeColor=#12AAB5;strokeWidth=3;entryX=0;entryY=0.365;entryDx=0;entryDy=0;entryPerimeter=0;" edge="1" parent="176" source="bZvlyEn4WAad31Ou14rT-275" target="bZvlyEn4WAad31Ou14rT-282">
          <mxGeometry relative="1" as="geometry">
            <mxPoint x="90" y="326" as="targetPoint" />
          </mxGeometry>
        </mxCell>
        <mxCell id="187" value="大禹投放" style="swimlane;whiteSpace=wrap;fillColor=none;swimlaneFillColor=#F7F6F5;fontColor=#2F5B7C;fontFamily=Tahoma;html=1;strokeColor=default;opacity=50;" parent="1" vertex="1">
          <mxGeometry x="410" y="90" width="710" height="660" as="geometry">
            <mxRectangle x="20" y="20" width="80" height="23" as="alternateBounds" />
          </mxGeometry>
        </mxCell>
        <mxCell id="bZvlyEn4WAad31Ou14rT-317" value="&lt;font color=&quot;#000000&quot;&gt;&lt;br&gt;&lt;/font&gt;" style="rounded=0;whiteSpace=wrap;html=1;fontColor=#FFFFFF;strokeColor=#FF8000;strokeWidth=1;fillColor=none;dashed=1;" vertex="1" parent="187">
          <mxGeometry x="10" y="240" width="520" height="401.5" as="geometry" />
        </mxCell>
        <mxCell id="bZvlyEn4WAad31Ou14rT-311" value="&lt;font color=&quot;#000000&quot;&gt;&lt;br&gt;&lt;/font&gt;" style="rounded=0;whiteSpace=wrap;html=1;fontColor=#FFFFFF;strokeColor=#FF6666;strokeWidth=1;fillColor=none;dashed=1;" vertex="1" parent="187">
          <mxGeometry x="20" y="390.75" width="340" height="240" as="geometry" />
        </mxCell>
        <mxCell id="bZvlyEn4WAad31Ou14rT-255" value="" style="edgeStyle=orthogonalEdgeStyle;curved=1;rounded=0;orthogonalLoop=1;jettySize=auto;html=1;fontColor=#FFFFFF;strokeColor=#12AAB5;strokeWidth=3;endArrow=block;endFill=0;" edge="1" parent="187" source="bZvlyEn4WAad31Ou14rT-251" target="bZvlyEn4WAad31Ou14rT-254">
          <mxGeometry relative="1" as="geometry" />
        </mxCell>
        <mxCell id="bZvlyEn4WAad31Ou14rT-251" value="&lt;font color=&quot;#ffffff&quot;&gt;批量任务&lt;/font&gt;" style="rounded=0;whiteSpace=wrap;html=1;strokeColor=none;strokeWidth=1;fillColor=#12AAB5;" vertex="1" parent="187">
          <mxGeometry x="200" y="276.75" width="120" height="60" as="geometry" />
        </mxCell>
        <mxCell id="bZvlyEn4WAad31Ou14rT-257" value="" style="edgeStyle=orthogonalEdgeStyle;curved=1;rounded=0;orthogonalLoop=1;jettySize=auto;html=1;fontColor=#FFFFFF;strokeColor=#12AAB5;strokeWidth=3;" edge="1" parent="187" source="bZvlyEn4WAad31Ou14rT-254" target="bZvlyEn4WAad31Ou14rT-256">
          <mxGeometry relative="1" as="geometry" />
        </mxCell>
        <mxCell id="bZvlyEn4WAad31Ou14rT-254" value="&lt;font color=&quot;#ffffff&quot;&gt;广告计划&lt;/font&gt;" style="rounded=0;whiteSpace=wrap;html=1;strokeColor=none;strokeWidth=1;fillColor=#12AAB5;" vertex="1" parent="187">
          <mxGeometry x="200" y="415.25" width="120" height="60" as="geometry" />
        </mxCell>
        <mxCell id="bZvlyEn4WAad31Ou14rT-274" value="" style="edgeStyle=orthogonalEdgeStyle;curved=1;rounded=0;orthogonalLoop=1;jettySize=auto;html=1;fontColor=#FFFFFF;endArrow=classic;endFill=1;strokeColor=#12AAB5;strokeWidth=3;" edge="1" parent="187" source="bZvlyEn4WAad31Ou14rT-256" target="bZvlyEn4WAad31Ou14rT-273">
          <mxGeometry relative="1" as="geometry" />
        </mxCell>
        <mxCell id="bZvlyEn4WAad31Ou14rT-256" value="&lt;font color=&quot;#ffffff&quot;&gt;广告任务&lt;/font&gt;" style="rounded=0;whiteSpace=wrap;html=1;strokeColor=none;strokeWidth=1;fillColor=#12AAB5;" vertex="1" parent="187">
          <mxGeometry x="200" y="556.75" width="120" height="60" as="geometry" />
        </mxCell>
        <mxCell id="bZvlyEn4WAad31Ou14rT-305" style="edgeStyle=orthogonalEdgeStyle;curved=1;rounded=0;orthogonalLoop=1;jettySize=auto;html=1;exitX=1;exitY=0.5;exitDx=0;exitDy=0;entryX=0;entryY=0.5;entryDx=0;entryDy=0;fontColor=#FFFFFF;endArrow=classic;endFill=1;strokeColor=#12AAB5;strokeWidth=3;" edge="1" parent="187" source="bZvlyEn4WAad31Ou14rT-258" target="bZvlyEn4WAad31Ou14rT-251">
          <mxGeometry relative="1" as="geometry" />
        </mxCell>
        <mxCell id="bZvlyEn4WAad31Ou14rT-258" value="&lt;font color=&quot;#ffffff&quot;&gt;广告创意&lt;/font&gt;" style="rounded=0;whiteSpace=wrap;html=1;strokeColor=none;strokeWidth=1;fillColor=#12AAB5;" vertex="1" parent="187">
          <mxGeometry x="30" y="276.75" width="120" height="60" as="geometry" />
        </mxCell>
        <mxCell id="bZvlyEn4WAad31Ou14rT-273" value="&lt;font color=&quot;#ffffff&quot;&gt;同步广告数据&lt;br&gt;到媒体平台&lt;br&gt;&lt;/font&gt;" style="rounded=0;whiteSpace=wrap;html=1;strokeColor=none;strokeWidth=1;fillColor=#12AAB5;" vertex="1" parent="187">
          <mxGeometry x="550" y="330.75" width="120" height="60" as="geometry" />
        </mxCell>
        <mxCell id="bZvlyEn4WAad31Ou14rT-298" style="edgeStyle=orthogonalEdgeStyle;curved=1;rounded=0;orthogonalLoop=1;jettySize=auto;html=1;entryX=1;entryY=0.5;entryDx=0;entryDy=0;fontColor=#FFFFFF;endArrow=classic;endFill=1;strokeColor=#12AAB5;strokeWidth=3;" edge="1" parent="187" source="bZvlyEn4WAad31Ou14rT-295" target="bZvlyEn4WAad31Ou14rT-251">
          <mxGeometry relative="1" as="geometry" />
        </mxCell>
        <mxCell id="bZvlyEn4WAad31Ou14rT-295" value="&lt;font color=&quot;#ffffff&quot;&gt;人群&lt;br&gt;&lt;/font&gt;" style="ellipse;whiteSpace=wrap;html=1;fillColor=#12AAB5;strokeColor=none;rounded=0;strokeWidth=1;" vertex="1" parent="187">
          <mxGeometry x="380" y="287.25" width="40" height="39" as="geometry" />
        </mxCell>
        <mxCell id="bZvlyEn4WAad31Ou14rT-297" value="&lt;font color=&quot;#ffffff&quot;&gt;排期&lt;br&gt;出价&lt;br&gt;&lt;/font&gt;" style="ellipse;whiteSpace=wrap;html=1;fillColor=#12AAB5;strokeColor=none;rounded=0;strokeWidth=1;" vertex="1" parent="187">
          <mxGeometry x="390" y="325.75" width="70" height="40" as="geometry" />
        </mxCell>
        <mxCell id="bZvlyEn4WAad31Ou14rT-299" style="edgeStyle=orthogonalEdgeStyle;curved=1;rounded=0;orthogonalLoop=1;jettySize=auto;html=1;fontColor=#FFFFFF;endArrow=classic;endFill=1;strokeColor=#12AAB5;strokeWidth=3;entryX=1;entryY=0.5;entryDx=0;entryDy=0;" edge="1" parent="187" source="bZvlyEn4WAad31Ou14rT-297" target="bZvlyEn4WAad31Ou14rT-251">
          <mxGeometry relative="1" as="geometry">
            <mxPoint x="330" y="355.75" as="targetPoint" />
          </mxGeometry>
        </mxCell>
        <mxCell id="bZvlyEn4WAad31Ou14rT-300" style="edgeStyle=orthogonalEdgeStyle;curved=1;rounded=0;orthogonalLoop=1;jettySize=auto;html=1;entryX=1;entryY=0.5;entryDx=0;entryDy=0;fontColor=#FFFFFF;endArrow=classic;endFill=1;strokeColor=#12AAB5;strokeWidth=3;" edge="1" parent="187" source="bZvlyEn4WAad31Ou14rT-301" target="bZvlyEn4WAad31Ou14rT-254">
          <mxGeometry relative="1" as="geometry">
            <mxPoint x="340" y="445.25" as="targetPoint" />
          </mxGeometry>
        </mxCell>
        <mxCell id="bZvlyEn4WAad31Ou14rT-301" value="&lt;font color=&quot;#ffffff&quot;&gt;预算&lt;br&gt;&lt;/font&gt;" style="ellipse;whiteSpace=wrap;html=1;fillColor=#12AAB5;strokeColor=none;rounded=0;strokeWidth=1;" vertex="1" parent="187">
          <mxGeometry x="400" y="425.75" width="40" height="39" as="geometry" />
        </mxCell>
        <mxCell id="bZvlyEn4WAad31Ou14rT-302" value="&lt;font color=&quot;#ffffff&quot;&gt;推广标的&lt;br&gt;&lt;/font&gt;" style="ellipse;whiteSpace=wrap;html=1;fillColor=#12AAB5;strokeColor=none;rounded=0;strokeWidth=1;" vertex="1" parent="187">
          <mxGeometry x="410" y="464.25" width="70" height="40" as="geometry" />
        </mxCell>
        <mxCell id="bZvlyEn4WAad31Ou14rT-303" style="edgeStyle=orthogonalEdgeStyle;curved=1;rounded=0;orthogonalLoop=1;jettySize=auto;html=1;fontColor=#FFFFFF;endArrow=classic;endFill=1;strokeColor=#12AAB5;strokeWidth=3;entryX=1;entryY=0.5;entryDx=0;entryDy=0;" edge="1" parent="187" source="bZvlyEn4WAad31Ou14rT-302" target="bZvlyEn4WAad31Ou14rT-254">
          <mxGeometry relative="1" as="geometry">
            <mxPoint x="340" y="445.25" as="targetPoint" />
          </mxGeometry>
        </mxCell>
        <mxCell id="bZvlyEn4WAad31Ou14rT-309" style="edgeStyle=orthogonalEdgeStyle;curved=1;rounded=0;orthogonalLoop=1;jettySize=auto;html=1;entryX=0;entryY=0.5;entryDx=0;entryDy=0;fontColor=#FFFFFF;endArrow=classic;endFill=1;strokeColor=#12AAB5;strokeWidth=3;" edge="1" parent="187" source="bZvlyEn4WAad31Ou14rT-306" target="bZvlyEn4WAad31Ou14rT-256">
          <mxGeometry relative="1" as="geometry">
            <Array as="points">
              <mxPoint x="70" y="587.25" />
              <mxPoint x="140" y="587.25" />
            </Array>
          </mxGeometry>
        </mxCell>
        <mxCell id="bZvlyEn4WAad31Ou14rT-306" value="&lt;font color=&quot;#ffffff&quot;&gt;广告创意&lt;/font&gt;" style="rounded=0;whiteSpace=wrap;html=1;strokeColor=none;strokeWidth=1;fillColor=#12AAB5;" vertex="1" parent="187">
          <mxGeometry x="30" y="481.5" width="120" height="60.5" as="geometry" />
        </mxCell>
        <mxCell id="bZvlyEn4WAad31Ou14rT-312" value="&lt;font color=&quot;#ff6666&quot;&gt;单次人工广告投放&lt;/font&gt;" style="text;html=1;strokeColor=none;fillColor=none;align=center;verticalAlign=middle;whiteSpace=wrap;rounded=0;fontColor=#FFFFFF;" vertex="1" parent="187">
          <mxGeometry x="40" y="425.75" width="60" height="30" as="geometry" />
        </mxCell>
        <mxCell id="bZvlyEn4WAad31Ou14rT-315" value="&lt;font color=&quot;#ffffff&quot;&gt;投放账号&lt;br&gt;&lt;/font&gt;" style="ellipse;whiteSpace=wrap;html=1;fillColor=#12AAB5;strokeColor=none;rounded=0;strokeWidth=1;" vertex="1" parent="187">
          <mxGeometry x="425" y="285.75" width="70" height="40" as="geometry" />
        </mxCell>
        <mxCell id="bZvlyEn4WAad31Ou14rT-314" value="&lt;font color=&quot;#ffffff&quot;&gt;推广标的&lt;br&gt;&lt;/font&gt;" style="ellipse;whiteSpace=wrap;html=1;fillColor=#12AAB5;strokeColor=none;rounded=0;strokeWidth=1;" vertex="1" parent="187">
          <mxGeometry x="470" y="326.75" width="40" height="39" as="geometry" />
        </mxCell>
        <mxCell id="bZvlyEn4WAad31Ou14rT-318" value="&lt;font color=&quot;#ff8000&quot;&gt;批量广告投放&lt;/font&gt;" style="text;html=1;strokeColor=none;fillColor=none;align=center;verticalAlign=middle;whiteSpace=wrap;rounded=0;fontColor=#000000;" vertex="1" parent="187">
          <mxGeometry x="430" y="257.25" width="80" height="30" as="geometry" />
        </mxCell>
        <mxCell id="bZvlyEn4WAad31Ou14rT-321" value="&lt;font color=&quot;#ffffff&quot;&gt;RTA策略&lt;/font&gt;" style="rhombus;whiteSpace=wrap;html=1;fillColor=#12AAB5;strokeColor=none;rounded=0;strokeWidth=1;" vertex="1" parent="187">
          <mxGeometry x="360" y="60" width="80" height="80" as="geometry" />
        </mxCell>
        <mxCell id="bZvlyEn4WAad31Ou14rT-322" value="" style="edgeStyle=orthogonalEdgeStyle;curved=1;rounded=0;orthogonalLoop=1;jettySize=auto;html=1;fontColor=#FF6666;endArrow=classic;endFill=1;strokeColor=#12AAB5;strokeWidth=3;" edge="1" parent="187" source="bZvlyEn4WAad31Ou14rT-321" target="bZvlyEn4WAad31Ou14rT-295">
          <mxGeometry relative="1" as="geometry" />
        </mxCell>
        <mxCell id="183" value="&lt;font color=&quot;#23497d&quot;&gt;大禹创意生成&lt;/font&gt;" style="swimlane;whiteSpace=wrap;fillColor=default;swimlaneFillColor=#F7F6F5;fontColor=#2F5B7C;fontFamily=Tahoma;html=1;strokeColor=default;opacity=25;strokeWidth=1;" parent="1" vertex="1">
          <mxGeometry x="200" y="89" width="170" height="661" as="geometry">
            <mxRectangle x="20" y="20" width="80" height="23" as="alternateBounds" />
          </mxGeometry>
        </mxCell>
        <mxCell id="202" value="" style="edgeStyle=segmentEdgeStyle;strokeColor=#2F5B7C;strokeWidth=3;html=1;endArrow=block;endFill=1;exitX=1;exitY=0.5;exitDx=0;exitDy=0;startArrow=none;" parent="183" source="184" edge="1">
          <mxGeometry x="-20" y="180" width="100" height="100" as="geometry">
            <mxPoint x="-14.5" y="121.5" as="sourcePoint" />
            <mxPoint x="95.5" y="121.5" as="targetPoint" />
          </mxGeometry>
        </mxCell>
        <mxCell id="bZvlyEn4WAad31Ou14rT-261" value="自动化创意制作" style="whiteSpace=wrap;shadow=0;fontColor=#FFFFFF;fontFamily=Helvetica;fontStyle=0;html=1;fontSize=12;plain-purple;strokeColor=none;fillColor=#2f5b7c;gradientColor=none;spacing=6;verticalAlign=middle;" vertex="1" parent="183">
          <mxGeometry x="20" y="91" width="120" height="60" as="geometry" />
        </mxCell>
        <mxCell id="bZvlyEn4WAad31Ou14rT-265" value="大禹落地页" style="ellipse;whiteSpace=wrap;html=1;fillColor=#2f5b7c;strokeColor=none;fontColor=#FFFFFF;shadow=0;fontStyle=0;gradientColor=none;spacing=6;" vertex="1" parent="183">
          <mxGeometry x="20" y="401" width="120" height="60" as="geometry" />
        </mxCell>
        <mxCell id="184" value="人工创意制作" style="whiteSpace=wrap;shadow=0;fontColor=#FFFFFF;fontFamily=Helvetica;fontStyle=0;html=1;fontSize=12;plain-purple;strokeColor=none;fillColor=#2f5b7c;gradientColor=none;spacing=6;verticalAlign=middle;" parent="183" vertex="1">
          <mxGeometry x="20" y="295" width="120" height="60" as="geometry" />
        </mxCell>
        <mxCell id="bZvlyEn4WAad31Ou14rT-304" value="" style="edgeStyle=orthogonalEdgeStyle;curved=1;rounded=0;orthogonalLoop=1;jettySize=auto;html=1;fontColor=#FFFFFF;strokeColor=#12AAB5;strokeWidth=3;endArrow=none;" edge="1" parent="183" source="bZvlyEn4WAad31Ou14rT-265" target="184">
          <mxGeometry relative="1" as="geometry">
            <mxPoint x="290" y="450" as="sourcePoint" />
            <mxPoint x="290" y="370" as="targetPoint" />
          </mxGeometry>
        </mxCell>
        <mxCell id="bZvlyEn4WAad31Ou14rT-228" value="" style="edgeStyle=segmentEdgeStyle;strokeColor=#2F5B7C;strokeWidth=3;html=1;endArrow=block;endFill=1;exitX=1;exitY=0.5;exitDx=0;exitDy=0;entryX=0;entryY=0.5;entryDx=0;entryDy=0;" edge="1" parent="1" source="171" target="184">
          <mxGeometry width="100" height="100" relative="1" as="geometry">
            <mxPoint x="230" y="280.5" as="sourcePoint" />
            <mxPoint x="200" y="250" as="targetPoint" />
            <Array as="points">
              <mxPoint x="190" y="199" />
              <mxPoint x="190" y="414" />
            </Array>
          </mxGeometry>
        </mxCell>
        <mxCell id="bZvlyEn4WAad31Ou14rT-262" value="" style="edgeStyle=orthogonalEdgeStyle;curved=1;rounded=0;orthogonalLoop=1;jettySize=auto;html=1;fontColor=#FFFFFF;strokeColor=#12AAB5;strokeWidth=3;" edge="1" parent="1" source="171" target="bZvlyEn4WAad31Ou14rT-261">
          <mxGeometry relative="1" as="geometry">
            <Array as="points">
              <mxPoint x="210" y="199" />
              <mxPoint x="210" y="199" />
            </Array>
          </mxGeometry>
        </mxCell>
        <mxCell id="bZvlyEn4WAad31Ou14rT-263" style="edgeStyle=orthogonalEdgeStyle;curved=1;rounded=0;orthogonalLoop=1;jettySize=auto;html=1;entryX=0;entryY=0.5;entryDx=0;entryDy=0;fontColor=#FFFFFF;strokeColor=#12AAB5;strokeWidth=3;" edge="1" parent="1" source="bZvlyEn4WAad31Ou14rT-261" target="bZvlyEn4WAad31Ou14rT-258">
          <mxGeometry relative="1" as="geometry" />
        </mxCell>
        <mxCell id="bZvlyEn4WAad31Ou14rT-307" style="edgeStyle=orthogonalEdgeStyle;curved=1;rounded=0;orthogonalLoop=1;jettySize=auto;html=1;exitX=1;exitY=0.5;exitDx=0;exitDy=0;entryX=0;entryY=0.5;entryDx=0;entryDy=0;fontColor=#FFFFFF;endArrow=classic;endFill=1;strokeColor=#12AAB5;strokeWidth=3;" edge="1" parent="1" source="184" target="bZvlyEn4WAad31Ou14rT-306">
          <mxGeometry relative="1" as="geometry" />
        </mxCell>
        <mxCell id="bZvlyEn4WAad31Ou14rT-323" style="edgeStyle=orthogonalEdgeStyle;curved=1;rounded=0;orthogonalLoop=1;jettySize=auto;html=1;entryX=0;entryY=0.5;entryDx=0;entryDy=0;fontColor=#FFFFFF;endArrow=classic;endFill=1;strokeColor=#12AAB5;strokeWidth=3;" edge="1" parent="1" source="bZvlyEn4WAad31Ou14rT-273" target="179">
          <mxGeometry relative="1" as="geometry" />
        </mxCell>
        <mxCell id="bZvlyEn4WAad31Ou14rT-324" style="edgeStyle=orthogonalEdgeStyle;curved=1;rounded=0;orthogonalLoop=1;jettySize=auto;html=1;entryX=0;entryY=0.5;entryDx=0;entryDy=0;fontColor=#FFFFFF;endArrow=classic;endFill=1;strokeColor=#12AAB5;strokeWidth=3;" edge="1" parent="1" source="bZvlyEn4WAad31Ou14rT-273" target="bZvlyEn4WAad31Ou14rT-275">
          <mxGeometry relative="1" as="geometry" />
        </mxCell>
        <mxCell id="bZvlyEn4WAad31Ou14rT-325" style="edgeStyle=orthogonalEdgeStyle;curved=1;rounded=0;orthogonalLoop=1;jettySize=auto;html=1;entryX=0;entryY=0.5;entryDx=0;entryDy=0;fontColor=#FFFFFF;endArrow=classic;endFill=1;strokeColor=#12AAB5;strokeWidth=3;" edge="1" parent="1" source="bZvlyEn4WAad31Ou14rT-273" target="bZvlyEn4WAad31Ou14rT-276">
          <mxGeometry relative="1" as="geometry" />
        </mxCell>
        <mxCell id="bZvlyEn4WAad31Ou14rT-326" style="edgeStyle=orthogonalEdgeStyle;curved=1;rounded=0;orthogonalLoop=1;jettySize=auto;html=1;entryX=0;entryY=0.5;entryDx=0;entryDy=0;fontColor=#FFFFFF;endArrow=classic;endFill=1;strokeColor=#12AAB5;strokeWidth=3;" edge="1" parent="1" source="bZvlyEn4WAad31Ou14rT-273" target="bZvlyEn4WAad31Ou14rT-277">
          <mxGeometry relative="1" as="geometry" />
        </mxCell>
      </root>
    </mxGraphModel>
  </diagram>
</mxfile>
